<?xml version="1.0" encoding="UTF-8" standalone="no"?>
<!-- Created with Inkscape (http://www.inkscape.org/) -->

<svg
   width="853.33331"
   height="853.33331"
   id="svg2"
   version="1.1"
   inkscape:version="1.1.1 (3bf5ae0d25, 2021-09-20)"
   sodipodi:docname="00_Logo_white.svg"
   viewBox="0 0 800 800"
   inkscape:export-filename="C:\Users\paddy\OneDrive\Documents\00_Volleyball\00_PR\00_CD\02_Logos\00_Alli-Logos\01_Bitmaps\04_Mono_navy.png"
   inkscape:export-xdpi="299.99762"
   inkscape:export-ydpi="299.99762"
   xmlns:inkscape="http://www.inkscape.org/namespaces/inkscape"
   xmlns:sodipodi="http://sodipodi.sourceforge.net/DTD/sodipodi-0.dtd"
   xmlns="http://www.w3.org/2000/svg"
   xmlns:svg="http://www.w3.org/2000/svg"
   xmlns:rdf="http://www.w3.org/1999/02/22-rdf-syntax-ns#"
   xmlns:cc="http://creativecommons.org/ns#"
   xmlns:dc="http://purl.org/dc/elements/1.1/">
  <defs
     id="defs4" />
  <sodipodi:namedview
     id="base"
     pagecolor="#ffffff"
     bordercolor="#666666"
     borderopacity="1.0"
     inkscape:pageopacity="0.0"
     inkscape:pageshadow="2"
     inkscape:zoom="1.4"
     inkscape:cx="664.28571"
     inkscape:cy="397.14286"
     inkscape:document-units="px"
     inkscape:current-layer="layer2"
     showgrid="false"
     inkscape:window-width="3840"
     inkscape:window-height="2066"
     inkscape:window-x="5149"
     inkscape:window-y="-11"
     inkscape:window-maximized="1"
     inkscape:pagecheckerboard="0" />
  <metadata
     id="metadata7">
    <rdf:RDF>
      <cc:Work
         rdf:about="">
        <dc:format>image/svg+xml</dc:format>
        <dc:type
           rdf:resource="http://purl.org/dc/dcmitype/StillImage" />
      </cc:Work>
    </rdf:RDF>
  </metadata>
  <g
     inkscape:groupmode="layer"
     id="layer1"
     inkscape:label="Layer#1"
     style="display:inline" />
  <g
     inkscape:groupmode="layer"
     id="layer2"
     inkscape:label="Layer"
     style="display:inline"
     transform="translate(0,-252.36218)">
    <path
       style="fill:#ffffff;fill-opacity:1;fill-rule:evenodd;stroke:none"
       d="m 402.12812,262.11696 c -215.46674,0 -390.137049,174.41682 -390.137049,389.5596 0,215.14263 174.670309,389.54664 390.137049,389.54664 215.46674,0 390.13705,-174.40401 390.13705,-389.54664 0,-215.14278 -174.67031,-389.5596 -390.13705,-389.5596 z m -0.57751,38.71854 c 193.75807,0 350.82818,156.81662 350.82818,350.2507 0,193.43398 -157.07011,350.2378 -350.82818,350.2378 -193.75807,0 -350.841004,-156.80382 -350.841004,-350.2378 0,-193.43408 157.082934,-350.2507 350.841004,-350.2507 z m 0.57751,42.24774 c -170.75336,0 -309.170784,138.16394 -309.170784,308.59332 0,170.42924 138.417424,308.58037 309.170784,308.58037 170.75335,0 309.18361,-138.15113 309.18361,-308.58037 h -59.84241 -23.47239 -65.70729 v 73.92067 h 53.40001 c -30.56288,88.76728 -114.63568,152.52551 -213.56153,152.52551 -124.74391,0 -225.86882,-101.3783 -225.86882,-226.44618 0,-125.06801 101.12491,-226.45921 225.86882,-226.45921 60.43115,0 115.32822,23.79546 155.86232,62.55026 l 56.98053,-59.9194 C 557.52099,373.42319 481.3358,343.08324 402.12812,343.08324 Z m -19.04485,144.32503 c -0.38614,0 -0.76755,0.0225 -1.14218,0.0642 h -54.31118 v 32.78944 h 45.34059 v 265.69111 c 0,0.23193 0.0104,0.45211 0.0256,0.68013 v 9.39411 h 9.21441 c 0.28683,0.0249 0.57937,0.0392 0.87268,0.0392 h 37.37103 c 0.29331,0 0.573,-0.0144 0.85983,-0.0392 h 9.21443 v -9.21444 c 0.0242,-0.28682 0.0385,-0.56658 0.0385,-0.8598 V 497.52106 c 0,-5.60363 -4.50911,-10.11276 -10.11275,-10.11276 h -37.37102 z m -51.06433,73.30474 v 0.064 h -31.33928 c -10.42691,0 -18.81385,8.38693 -18.81385,18.81383 v 127.84693 78.61765 h 74.4982 V 766.65123 590.92276 579.59084 560.71286 h -24.34507 z m 114.41026,0.57743 v 18.87811 11.33191 175.72847 19.40419 h 74.49821 V 708.01533 580.16855 c 0,-10.42691 -8.38694,-18.81396 -18.81384,-18.81396 h -31.3393 v -0.0641 H 446.4292 Z"
       id="path2999"
       inkscape:connector-curvature="0" />
  </g>
</svg>
